<svg width="30" height="30" viewBox="0 0 30 30" fill="none" xmlns="http://www.w3.org/2000/svg">
<path d="M8.75 16.875V15H21.25V16.875H8.75ZM8.75 22.5V20.625H17.4688V22.5H8.75ZM5.625 27.5C5.125 27.5 4.6875 27.3125 4.3125 26.9375C3.9375 26.5625 3.75 26.125 3.75 25.625V6.25C3.75 5.75 3.9375 5.3125 4.3125 4.9375C4.6875 4.5625 5.125 4.375 5.625 4.375H7.65625V2.5H9.6875V4.375H20.3125V2.5H22.3438V4.375H24.375C24.875 4.375 25.3125 4.5625 25.6875 4.9375C26.0625 5.3125 26.25 5.75 26.25 6.25V25.625C26.25 26.125 26.0625 26.5625 25.6875 26.9375C25.3125 27.3125 24.875 27.5 24.375 27.5H5.625ZM5.625 25.625H24.375V12.1875H5.625V25.625Z" fill="white"/>
</svg>
