<svg width="30" height="30" viewBox="0 0 30 30" fill="none" xmlns="http://www.w3.org/2000/svg">
<path d="M5.325 23.4375C6.9 22.3375 8.4625 21.4938 10.0125 20.9062C11.5625 20.3187 13.225 20.025 15 20.025C16.775 20.025 18.4437 20.3187 20.0062 20.9062C21.5687 21.4938 23.1375 22.3375 24.7125 23.4375C25.8125 22.0875 26.5938 20.725 27.0563 19.35C27.5188 17.975 27.75 16.525 27.75 15C27.75 11.375 26.5312 8.34375 24.0938 5.90625C21.6562 3.46875 18.625 2.25 15 2.25C11.375 2.25 8.34375 3.46875 5.90625 5.90625C3.46875 8.34375 2.25 11.375 2.25 15C2.25 16.525 2.4875 17.975 2.9625 19.35C3.4375 20.725 4.225 22.0875 5.325 23.4375ZM15 16.125C13.55 16.125 12.3313 15.6312 11.3438 14.6437C10.3562 13.6562 9.8625 12.4375 9.8625 10.9875C9.8625 9.5375 10.3562 8.31875 11.3438 7.33125C12.3313 6.34375 13.55 5.85 15 5.85C16.45 5.85 17.6687 6.34375 18.6562 7.33125C19.6438 8.31875 20.1375 9.5375 20.1375 10.9875C20.1375 12.4375 19.6438 13.6562 18.6562 14.6437C17.6687 15.6312 16.45 16.125 15 16.125ZM15 30C12.95 30 11.0125 29.6062 9.1875 28.8187C7.3625 28.0312 5.76875 26.9563 4.40625 25.5938C3.04375 24.2312 1.96875 22.6375 1.18125 20.8125C0.39375 18.9875 0 17.05 0 15C0 12.925 0.39375 10.9813 1.18125 9.16875C1.96875 7.35625 3.04375 5.76875 4.40625 4.40625C5.76875 3.04375 7.3625 1.96875 9.1875 1.18125C11.0125 0.39375 12.95 0 15 0C17.075 0 19.0187 0.39375 20.8312 1.18125C22.6437 1.96875 24.2312 3.04375 25.5938 4.40625C26.9563 5.76875 28.0312 7.35625 28.8187 9.16875C29.6062 10.9813 30 12.925 30 15C30 17.05 29.6062 18.9875 28.8187 20.8125C28.0312 22.6375 26.9563 24.2312 25.5938 25.5938C24.2312 26.9563 22.6437 28.0312 20.8312 28.8187C19.0187 29.6062 17.075 30 15 30ZM15 27.75C16.375 27.75 17.7188 27.55 19.0312 27.15C20.3438 26.75 21.6375 26.05 22.9125 25.05C21.6375 24.15 20.3375 23.4625 19.0125 22.9875C17.6875 22.5125 16.35 22.275 15 22.275C13.65 22.275 12.3125 22.5125 10.9875 22.9875C9.6625 23.4625 8.3625 24.15 7.0875 25.05C8.3625 26.05 9.65625 26.75 10.9688 27.15C12.2812 27.55 13.625 27.75 15 27.75ZM15 13.875C15.85 13.875 16.5437 13.6062 17.0812 13.0687C17.6187 12.5312 17.8875 11.8375 17.8875 10.9875C17.8875 10.1375 17.6187 9.44375 17.0812 8.90625C16.5437 8.36875 15.85 8.1 15 8.1C14.15 8.1 13.4563 8.36875 12.9188 8.90625C12.3813 9.44375 12.1125 10.1375 12.1125 10.9875C12.1125 11.8375 12.3813 12.5312 12.9188 13.0687C13.4563 13.6062 14.15 13.875 15 13.875Z" fill="white"/>
</svg>
